<svg width="324" height="318" viewBox="0 0 324 318" fill="none" xmlns="http://www.w3.org/2000/svg">
<path fill-rule="evenodd" clip-rule="evenodd" d="M41.121 245.225C35.1734 250.732 26.2041 252.272 18.5368 248.414C8.66973 243.45 4.69547 231.426 9.66009 221.559C14.6247 211.692 26.6482 207.718 36.5153 212.682C43.8415 216.368 47.9191 223.946 47.5012 231.643L65.0044 240.45C69.4043 236.588 75.2887 234.871 81.02 235.686L95.027 212.997L107.791 220.876L93.9964 243.221C98.9671 249.624 99.7223 258.693 95.2135 265.996C89.4111 275.395 77.088 278.311 67.6891 272.508C61.0703 268.422 57.6667 261.102 58.2586 253.847L41.121 245.225ZM23.3716 238.805C18.8114 236.511 16.9746 230.954 19.2691 226.394C21.5635 221.833 27.1204 219.997 31.6806 222.291C36.2408 224.586 38.0776 230.142 35.7831 234.703C33.4886 239.263 27.9318 241.1 23.3716 238.805ZM86.0605 260.346C83.3788 264.69 77.6835 266.037 73.3397 263.355C68.9959 260.674 67.6484 254.978 70.3301 250.635C73.0118 246.291 78.7071 244.943 83.0509 247.625C87.3947 250.307 88.7422 256.002 86.0605 260.346Z" fill="url(#paint0_linear_34_3)"/>
<path fill-rule="evenodd" clip-rule="evenodd" d="M261.178 76.1746C256.415 69.9499 255.576 61.2234 259.739 54.0116C265.261 44.4453 277.493 41.1667 287.059 46.6887C296.625 52.2108 299.904 64.4423 294.382 74.0086C290.153 81.3351 281.988 84.9736 274.099 83.7951L258.659 110.544L245.668 103.045L261.178 76.1746ZM269.055 59.3892C271.607 54.9679 277.26 53.4527 281.681 56.0048C286.103 58.5569 287.618 64.2098 285.066 68.6311C282.514 73.0523 276.861 74.5675 272.439 72.0154C268.018 69.4633 266.503 63.8104 269.055 59.3892Z" fill="url(#paint1_linear_34_3)"/>
<path d="M130.171 1.27401C128.246 1.97601 118.121 7.52001 107.671 13.593C97.2208 19.665 78.8598 30.325 66.8698 37.28C40.9908 52.29 40.5768 52.581 36.4568 58.664C33.5791 62.913 32.0158 65.7774 31.1681 73.193C34.6708 56.193 55.9004 47.9226 69.6708 61.693C71.6708 63.693 94.6169 86.693 94.6169 86.693C96.4305 84.3749 98.4432 82.1549 100.654 80.055C112.329 68.965 124.643 63.943 140.211 63.921C149.7 63.908 158.087 65.718 165.771 69.439C168.575 70.798 171.968 71.909 173.31 71.909C175.135 71.909 179.838 67.794 191.961 55.59C208.144 39.299 209.598 37.167 206.921 33.648C205.334 31.563 156.043 3.12801 150.82 1.28501C145.977 -0.42299 134.84 -0.429992 130.171 1.27401Z" fill="url(#paint2_linear_34_3)"/>
<path d="M30.1708 120.983C30.1708 147.683 30.5919 168.858 31.1859 171.988C33.5209 184.303 38.4359 190.01 54.7419 199.343C61.0509 202.954 66.4139 205.909 66.6599 205.909C66.6599 205.909 68.7892 207.384 76.6708 212.109C60.1708 196.193 72.6708 181.193 76.6708 177.193L95.8768 158.693C81.4777 141.746 78.6127 119.055 86.9091 99.693C88.8617 95.1359 91.4326 90.7631 94.6169 86.693C94.6169 86.693 71.6708 63.693 69.6708 61.693C55.9004 47.9226 34.6708 56.193 31.1681 73.193C30.9462 75.1333 30.7734 77.3852 30.6388 80.055C30.2154 88.4557 30.1708 100.994 30.1708 120.983Z" fill="url(#paint3_linear_34_3)"/>
<path fill-rule="evenodd" clip-rule="evenodd" d="M100.671 226.125C115.521 234.649 129.42 242.193 131.558 242.889C133.913 243.656 138.276 243.973 142.629 243.693C148.386 243.324 151.092 242.542 156.243 239.76C168.229 233.286 203.661 212.652 205.421 211.121C206.383 210.284 207.171 208.239 207.171 206.577C207.171 204.018 204.834 201.2 191.921 188.189C183.534 179.737 175.64 172.564 174.381 172.247C172.973 171.894 169.723 172.734 165.945 174.43C156.698 178.58 150.621 179.884 140.473 179.897C123.67 179.919 109.309 173.415 97.3558 160.369C96.85 159.817 96.357 159.258 95.8768 158.693L76.6708 177.193C72.6708 181.193 60.1708 196.193 76.6708 212.109C81.8474 215.211 89.5052 219.716 100.671 226.125Z" fill="url(#paint4_linear_34_3)"/>
<path d="M223.489 316.212C225.414 315.51 235.539 309.966 245.989 303.893C256.439 297.821 274.8 287.161 286.79 280.206C312.669 265.196 313.083 264.905 317.203 258.822C320.08 254.573 321.644 251.709 322.492 244.293C318.989 261.293 297.759 269.564 283.989 255.793C281.989 253.793 259.043 230.793 259.043 230.793C257.229 233.112 255.216 235.332 253.006 237.431C241.331 248.521 229.017 253.543 213.449 253.565C203.96 253.578 195.573 251.768 187.889 248.047C185.085 246.688 181.692 245.577 180.35 245.577C178.525 245.577 173.822 249.692 161.699 261.896C145.516 278.187 144.062 280.319 146.739 283.838C148.326 285.923 197.617 314.358 202.84 316.201C207.683 317.909 218.82 317.916 223.489 316.212Z" fill="url(#paint5_linear_34_3)"/>
<path d="M323.489 196.503C323.489 169.803 323.068 148.628 322.474 145.498C320.139 133.183 315.224 127.476 298.918 118.143C292.609 114.532 287.246 111.577 287 111.577C287 111.577 284.87 110.102 276.989 105.378C293.489 121.293 280.989 136.293 276.989 140.293L257.783 158.793C272.182 175.74 275.047 198.431 266.751 217.793C264.798 222.351 262.227 226.723 259.043 230.793C259.043 230.793 281.989 253.793 283.989 255.793C297.759 269.564 318.989 261.293 322.492 244.293C322.713 242.353 322.886 240.101 323.021 237.431C323.444 229.031 323.489 216.492 323.489 196.503Z" fill="url(#paint6_linear_34_3)"/>
<path fill-rule="evenodd" clip-rule="evenodd" d="M252.989 91.3615C238.139 82.8374 224.24 75.2934 222.102 74.5974C219.747 73.8304 215.384 73.5135 211.031 73.7935C205.274 74.1625 202.568 74.9444 197.417 77.7264C185.431 84.2004 149.999 104.834 148.239 106.365C147.277 107.202 146.489 109.247 146.489 110.909C146.489 113.468 148.826 116.286 161.739 129.297C170.126 137.749 178.02 144.922 179.279 145.239C180.687 145.592 183.937 144.752 187.715 143.056C196.962 138.906 203.039 137.602 213.187 137.589C229.99 137.567 244.351 144.071 256.304 157.117C256.81 157.67 257.303 158.228 257.783 158.793L276.989 140.293C280.989 136.293 293.489 121.293 276.989 105.378C271.812 102.275 264.154 97.7704 252.989 91.3615Z" fill="url(#paint7_linear_34_3)"/>
<defs>
<linearGradient id="paint0_linear_34_3" x1="297.688" y1="269.922" x2="29.4979" y2="370.388" gradientUnits="userSpaceOnUse">
<stop stop-color="#0E296F"/>
<stop offset="0.5" stop-color="#143CA2"/>
<stop offset="1" stop-color="#07163B"/>
</linearGradient>
<linearGradient id="paint1_linear_34_3" x1="173.543" y1="85.9351" x2="306.4" y2="97.6755" gradientUnits="userSpaceOnUse">
<stop stop-color="#143CA2"/>
<stop offset="1" stop-color="#07163B"/>
</linearGradient>
<linearGradient id="paint2_linear_34_3" x1="17.1708" y1="71.693" x2="219.171" y2="32.693" gradientUnits="userSpaceOnUse">
<stop stop-color="#143CA1"/>
<stop offset="1" stop-color="#07163B"/>
</linearGradient>
<linearGradient id="paint3_linear_34_3" x1="54.1708" y1="243.693" x2="62.1708" y2="31.193" gradientUnits="userSpaceOnUse">
<stop stop-color="#143CA2"/>
<stop offset="1" stop-color="#07163B"/>
</linearGradient>
<linearGradient id="paint4_linear_34_3" x1="222.671" y1="208.693" x2="39.6708" y2="176.193" gradientUnits="userSpaceOnUse">
<stop stop-color="#143CA2"/>
<stop offset="1" stop-color="#07163B"/>
</linearGradient>
<linearGradient id="paint5_linear_34_3" x1="336.489" y1="245.793" x2="134.171" y2="286.693" gradientUnits="userSpaceOnUse">
<stop stop-color="#143CA1"/>
<stop offset="1" stop-color="#07163B"/>
</linearGradient>
<linearGradient id="paint6_linear_34_3" x1="299.489" y1="73.7935" x2="291.489" y2="286.293" gradientUnits="userSpaceOnUse">
<stop stop-color="#143CA2"/>
<stop offset="1" stop-color="#07163B"/>
</linearGradient>
<linearGradient id="paint7_linear_34_3" x1="130.989" y1="108.793" x2="313.989" y2="141.293" gradientUnits="userSpaceOnUse">
<stop stop-color="#143CA2"/>
<stop offset="1" stop-color="#07163B"/>
</linearGradient>
</defs>
</svg>
